<svg width="256" height="30" viewBox="0 0 256 30" fill="none" xmlns="http://www.w3.org/2000/svg">
<path d="M44.0886 29.3237H37.0442L31.8442 21.8291H12.4444L7.37773 29.3237H0L18.7332 2.2574C19.6369 0.94811 20.8073 0.293463 22.2443 0.293463C23.6961 0.293463 24.8591 0.940585 25.7332 2.23483L44.0886 29.3237ZM28.022 16.321L22.0221 7.69775L16.1554 16.321H28.022Z" fill="#DEC909"/>
<path d="M75.3426 29.0754H59.5205C55.5798 29.0754 52.5872 28.6916 50.5428 27.9241C47.3132 26.7051 45.6983 24.4477 45.6983 21.1519V0.0902962H51.965V21.1519C51.965 22.2956 53.0464 23.0406 55.2094 23.3867C56.1279 23.5222 57.6538 23.5899 59.7871 23.5899H75.3426V29.0754Z" fill="#DEC909"/>
<path d="M121.13 29.3237H114.085L108.885 21.8291H89.4856L84.419 29.3237H77.0412L95.7744 2.2574C96.6781 0.94811 97.8485 0.293463 99.2855 0.293463C100.737 0.293463 101.9 0.940585 102.774 2.23483L121.13 29.3237ZM105.063 16.321L99.0633 7.69775L93.1967 16.321H105.063Z" fill="#DEC909"/>
<path d="M213.006 29.2334H206.739V0.0677221H213.006V29.2334Z" fill="#DEC909"/>
<path d="M256 25.4409C256 27.9843 254.97 29.256 252.911 29.256C251.682 29.256 250.496 28.7593 249.356 27.7661L227.422 8.82645V29.256L221.156 29.2334V3.67957C221.156 1.22652 222.156 0 224.156 0C225.504 0 226.808 0.549302 228.067 1.64791L249.711 20.3392V0H256V25.4409Z" fill="#DEC909"/>
<path d="M163.204 21.8959C163.204 24.7252 164.545 26.8547 167.226 28.2844C169.36 29.4281 171.945 30 174.982 30H198.271V1.15037H174.871C171.73 1.15037 169.167 1.63948 167.182 2.61769C164.53 3.91193 163.204 5.98122 163.204 8.82555V21.8959ZM169.426 21.8733V8.84812C169.426 8.03546 170.175 7.42596 171.671 7.01962C172.693 6.73369 173.804 6.59072 175.004 6.59072H192.004V24.5145H175.093C173.789 24.5145 172.634 24.3565 171.626 24.0405C170.16 23.589 169.426 22.8666 169.426 21.8733Z" fill="#DEC909"/>
<path d="M123.295 21.8959C123.295 24.7252 124.636 26.8547 127.317 28.2844C129.451 29.4281 132.036 30 135.073 30H158.362V1.15037H134.962C131.821 1.15037 129.258 1.63948 127.273 2.61769C124.621 3.91193 123.295 5.98122 123.295 8.82555V21.8959ZM129.517 21.8733V8.84812C129.517 8.03546 130.265 7.42596 131.762 7.01962C132.784 6.73369 133.895 6.59072 135.095 6.59072H152.095V24.5145H135.184C133.88 24.5145 132.725 24.3565 131.717 24.0405C130.251 23.589 129.517 22.8666 129.517 21.8733Z" fill="#DEC909"/>
</svg>
