<svg width="156" height="18" viewBox="0 0 156 18" fill="none" xmlns="http://www.w3.org/2000/svg">
<path d="M11.928 13.808H5.256L4.152 17H0.624L6.648 0.223999H10.56L16.584 17H13.032L11.928 13.808ZM11.016 11.12L8.592 4.112L6.168 11.12H11.016ZM24.6197 17.168C23.4517 17.168 22.3957 16.968 21.4517 16.568C20.5237 16.168 19.7877 15.592 19.2437 14.84C18.6997 14.088 18.4197 13.2 18.4037 12.176H22.0037C22.0517 12.864 22.2917 13.408 22.7237 13.808C23.1717 14.208 23.7797 14.408 24.5477 14.408C25.3317 14.408 25.9477 14.224 26.3957 13.856C26.8437 13.472 27.0677 12.976 27.0677 12.368C27.0677 11.872 26.9157 11.464 26.6117 11.144C26.3077 10.824 25.9237 10.576 25.4597 10.4C25.0117 10.208 24.3877 10 23.5877 9.776C22.4997 9.456 21.6117 9.144 20.9237 8.84C20.2517 8.52 19.6677 8.048 19.1717 7.424C18.6917 6.784 18.4517 5.936 18.4517 4.88C18.4517 3.888 18.6997 3.024 19.1957 2.288C19.6917 1.552 20.3877 0.991999 21.2837 0.607999C22.1797 0.208 23.2037 0.0079999 24.3557 0.0079999C26.0837 0.0079999 27.4837 0.432 28.5557 1.28C29.6437 2.112 30.2437 3.28 30.3557 4.784H26.6597C26.6277 4.208 26.3797 3.736 25.9157 3.368C25.4677 2.984 24.8677 2.792 24.1157 2.792C23.4597 2.792 22.9317 2.96 22.5317 3.296C22.1477 3.632 21.9557 4.12 21.9557 4.76C21.9557 5.208 22.0997 5.584 22.3877 5.888C22.6917 6.176 23.0597 6.416 23.4917 6.608C23.9397 6.784 24.5637 6.992 25.3637 7.232C26.4517 7.552 27.3397 7.872 28.0277 8.192C28.7157 8.512 29.3077 8.992 29.8037 9.632C30.2997 10.272 30.5477 11.112 30.5477 12.152C30.5477 13.048 30.3157 13.88 29.8517 14.648C29.3877 15.416 28.7077 16.032 27.8117 16.496C26.9157 16.944 25.8517 17.168 24.6197 17.168ZM42.9167 17L36.8207 9.536V17H33.4607V0.248H36.8207V7.76L42.9167 0.248H46.9727L40.0607 8.552L47.1647 17H42.9167Z" fill="white"/>
<path d="M65.3655 13.808H58.6935L57.5895 17H54.0615L60.0855 0.223999H63.9975L70.0215 17H66.4695L65.3655 13.808ZM64.4535 11.12L62.0295 4.112L59.6055 11.12H64.4535ZM75.6332 14.336H81.1532V17H72.2732V0.248H75.6332V14.336ZM93.5608 13.808H86.8888L85.7848 17H82.2568L88.2808 0.223999H92.1928L98.2168 17H94.6648L93.5608 13.808ZM92.6488 11.12L90.2248 4.112L87.8008 11.12H92.6488ZM106.325 0.248C108.085 0.248 109.629 0.592 110.957 1.28C112.301 1.968 113.333 2.952 114.053 4.232C114.789 5.496 115.157 6.968 115.157 8.648C115.157 10.328 114.789 11.8 114.053 13.064C113.333 14.312 112.301 15.28 110.957 15.968C109.629 16.656 108.085 17 106.325 17H100.469V0.248H106.325ZM106.205 14.144C107.965 14.144 109.325 13.664 110.285 12.704C111.245 11.744 111.725 10.392 111.725 8.648C111.725 6.904 111.245 5.544 110.285 4.568C109.325 3.576 107.965 3.08 106.205 3.08H103.829V14.144H106.205ZM123.528 0.248C125.288 0.248 126.832 0.592 128.16 1.28C129.504 1.968 130.536 2.952 131.256 4.232C131.992 5.496 132.36 6.968 132.36 8.648C132.36 10.328 131.992 11.8 131.256 13.064C130.536 14.312 129.504 15.28 128.16 15.968C126.832 16.656 125.288 17 123.528 17H117.672V0.248H123.528ZM123.408 14.144C125.168 14.144 126.528 13.664 127.488 12.704C128.448 11.744 128.928 10.392 128.928 8.648C128.928 6.904 128.448 5.544 127.488 4.568C126.528 3.576 125.168 3.08 123.408 3.08H121.032V14.144H123.408ZM138.235 0.248V17H134.875V0.248H138.235ZM155.882 17H152.522L144.914 5.504V17H141.554V0.223999H144.914L152.522 11.744V0.223999H155.882V17Z" fill="#DEC909"/>
</svg>
