<svg width="32" height="32" viewBox="0 0 32 32" fill="none" xmlns="http://www.w3.org/2000/svg">
<path d="M13.4804 24.1996H8.42708C7.88041 24.1996 7.42708 23.7463 7.42708 23.1996V16.3729C7.42708 14.9863 8.5604 13.8528 9.94706 13.8528H13.4804C14.0271 13.8528 14.4804 14.3061 14.4804 14.8528V23.1861C14.4804 23.7461 14.0271 24.1996 13.4804 24.1996ZM9.42708 22.1996H12.4804V15.8663H9.94706C9.66706 15.8663 9.42708 16.0928 9.42708 16.3861V22.1996Z" fill="white"/>
<path d="M18.5195 24.1996H13.4661C12.9195 24.1996 12.4661 23.7463 12.4661 23.1996V10.3195C12.4661 8.93283 13.5995 7.79948 14.9861 7.79948H17.0128C18.3995 7.79948 19.5328 8.93283 19.5328 10.3195V23.1996C19.5195 23.7463 19.0795 24.1996 18.5195 24.1996ZM14.4795 22.1996H17.5328V10.3195C17.5328 10.0395 17.3061 9.79948 17.0128 9.79948H14.9861C14.7061 9.79948 14.4661 10.0262 14.4661 10.3195V22.1996H14.4795Z" fill="white"/>
<path d="M23.5741 24.1996H18.5208C17.9741 24.1996 17.5208 23.7463 17.5208 23.1996V17.1328C17.5208 16.5861 17.9741 16.1328 18.5208 16.1328H22.0541C23.4408 16.1328 24.5741 17.2661 24.5741 18.6528V23.1996C24.5741 23.7463 24.1341 24.1996 23.5741 24.1996ZM19.5208 22.1996H22.5741V18.6528C22.5741 18.3728 22.3475 18.1328 22.0541 18.1328H19.5208V22.1996Z" fill="white"/>
<path d="M20 30.3333H12C4.75999 30.3333 1.66666 27.24 1.66666 20V12C1.66666 4.76001 4.75999 1.66667 12 1.66667H20C27.24 1.66667 30.3333 4.76001 30.3333 12V20C30.3333 27.24 27.24 30.3333 20 30.3333ZM12 3.66667C5.85332 3.66667 3.66666 5.85334 3.66666 12V20C3.66666 26.1467 5.85332 28.3333 12 28.3333H20C26.1467 28.3333 28.3333 26.1467 28.3333 20V12C28.3333 5.85334 26.1467 3.66667 20 3.66667H12Z" fill="white"/>
</svg>
